<svg width="1440" height="909" viewBox="0 0 1440 909" fill="none" xmlns="http://www.w3.org/2000/svg">
<g clip-path="url(#clip0_541_381)">
<rect width="1440" height="909" fill="#005DFF"/>
<g clip-path="url(#clip1_541_381)">
<rect width="1440" height="909" fill="#005DFF"/>
<g clip-path="url(#clip2_541_381)">
<rect width="1440" height="939" transform="translate(0 -30)" fill="#040314"/>
<g filter="url(#filter0_f_541_381)">
<ellipse cx="270.167" cy="131.438" rx="325.576" ry="294.249" transform="rotate(28.3027 270.167 131.438)" fill="#0037D7"/>
</g>
</g>
<g filter="url(#filter1_f_541_381)">
<path d="M1280.38 -208.289L-121.088 631.137L7.8125 -444L1280.38 -208.289Z" fill="url(#paint0_linear_541_381)"/>
<path d="M1280.38 -208.289L-121.088 631.137L7.8125 -444L1280.38 -208.289Z" stroke="#35ADFF" stroke-width="23"/>
</g>
<g filter="url(#filter2_f_541_381)">
<path d="M-36.6993 324.043L-99 -113H1488L1388.99 351.842L1170.38 218.477L1000.72 456L560.164 177.306L487.294 351.842L99.0273 218.477L-36.6993 324.043Z" fill="#062165"/>
<path d="M-36.6993 324.043L-99 -113H1488L1388.99 351.842L1170.38 218.477L1000.72 456L560.164 177.306L487.294 351.842L99.0273 218.477L-36.6993 324.043Z" stroke="#0044FF" stroke-width="67"/>
</g>
<g opacity="0.4">
<g opacity="0.4" clip-path="url(#clip3_541_381)">
<path d="M390.781 -777L390.781 588.657" stroke="url(#paint1_linear_541_381)" stroke-opacity="0.2" stroke-width="2"/>
<path d="M478.623 -777L478.623 588.657" stroke="url(#paint2_linear_541_381)" stroke-opacity="0.2" stroke-width="2"/>
<path d="M566.461 -776.999L566.461 588.658" stroke="url(#paint3_linear_541_381)" stroke-opacity="0.2" stroke-width="2"/>
<path d="M654.305 -776.999L654.305 588.658" stroke="url(#paint4_linear_541_381)" stroke-opacity="0.2" stroke-width="2"/>
<path d="M742.148 -777L742.148 588.657" stroke="url(#paint5_linear_541_381)" stroke-opacity="0.2" stroke-width="2"/>
<path d="M829.986 -777L829.986 588.657" stroke="url(#paint6_linear_541_381)" stroke-opacity="0.2" stroke-width="2"/>
<path d="M917.83 -776.999L917.83 588.658" stroke="url(#paint7_linear_541_381)" stroke-opacity="0.2" stroke-width="2"/>
<path d="M1005.67 -777L1005.67 588.657" stroke="url(#paint8_linear_541_381)" stroke-opacity="0.2" stroke-width="2"/>
<path d="M1093.51 -777L1093.51 588.657" stroke="url(#paint9_linear_541_381)" stroke-opacity="0.2" stroke-width="2"/>
<path d="M2.00195 42.3945L1440 42.3945" stroke="url(#paint10_linear_541_381)" stroke-opacity="0.2" stroke-width="2"/>
<path d="M2.00195 143.111L1440 143.111" stroke="url(#paint11_linear_541_381)" stroke-opacity="0.2" stroke-width="2"/>
<path d="M2 243.83L1440 243.83" stroke="url(#paint12_linear_541_381)" stroke-opacity="0.2" stroke-width="2"/>
</g>
</g>
<g opacity="0.2" filter="url(#filter3_f_541_381)">
<ellipse cx="1380.84" cy="888.5" rx="455.511" ry="634.032" transform="rotate(60 1380.84 888.5)" fill="url(#paint13_linear_541_381)"/>
<path d="M1573.35 1221.93C1433.06 1302.93 1284.94 1333.85 1160.62 1321.45C1036.17 1309.04 941.456 1254.52 892.81 1170.27C844.165 1086.01 844.305 976.724 895.783 862.739C947.205 748.881 1048.05 636.067 1188.34 555.071C1328.63 474.074 1476.75 443.149 1601.06 455.546C1725.52 467.956 1820.23 522.478 1868.88 606.734C1917.52 690.991 1917.38 800.276 1865.9 914.261C1814.48 1028.12 1713.64 1140.93 1573.35 1221.93Z" stroke="#0783FF" stroke-width="141"/>
</g>
</g>
<rect opacity="0.6" y="-3" width="1441" height="912" fill="#0D0E16"/>
<rect width="84.7059" height="84.7059" stroke="white" stroke-opacity="0.03" stroke-width="1.14467"/>
<rect x="84.7051" width="84.7059" height="84.7059" stroke="white" stroke-opacity="0.03" stroke-width="1.14467"/>
<rect x="169.412" width="84.7059" height="84.7059" stroke="white" stroke-opacity="0.03" stroke-width="1.14467"/>
<rect x="254.117" width="84.7059" height="84.7059" stroke="white" stroke-opacity="0.03" stroke-width="1.14467"/>
<rect x="338.824" width="84.7059" height="84.7059" stroke="white" stroke-opacity="0.03" stroke-width="1.14467"/>
<rect x="423.529" width="84.7059" height="84.7059" stroke="white" stroke-opacity="0.03" stroke-width="1.14467"/>
<rect x="508.234" width="84.7059" height="84.7059" stroke="white" stroke-opacity="0.03" stroke-width="1.14467"/>
<rect x="592.941" width="84.7059" height="84.7059" stroke="white" stroke-opacity="0.03" stroke-width="1.14467"/>
<rect x="677.647" width="84.7059" height="84.7059" stroke="white" stroke-opacity="0.03" stroke-width="1.14467"/>
<rect x="762.353" width="84.7059" height="84.7059" stroke="white" stroke-opacity="0.03" stroke-width="1.14467"/>
<rect x="847.059" width="84.7059" height="84.7059" stroke="white" stroke-opacity="0.03" stroke-width="1.14467"/>
<rect x="931.765" width="84.7059" height="84.7059" stroke="white" stroke-opacity="0.03" stroke-width="1.14467"/>
<rect x="1016.47" width="84.7059" height="84.7059" stroke="white" stroke-opacity="0.03" stroke-width="1.14467"/>
<rect x="1101.18" width="84.7059" height="84.7059" stroke="white" stroke-opacity="0.03" stroke-width="1.14467"/>
<rect x="1185.88" width="84.7059" height="84.7059" stroke="white" stroke-opacity="0.03" stroke-width="1.14467"/>
<rect x="1270.59" width="84.7059" height="84.7059" stroke="white" stroke-opacity="0.03" stroke-width="1.14467"/>
<rect x="1355.29" width="84.7059" height="84.7059" stroke="white" stroke-opacity="0.03" stroke-width="1.14467"/>
<rect y="84.7061" width="84.7059" height="84.7059" stroke="white" stroke-opacity="0.03" stroke-width="1.14467"/>
<rect x="84.7051" y="84.7061" width="84.7059" height="84.7059" stroke="white" stroke-opacity="0.03" stroke-width="1.14467"/>
<rect x="169.412" y="84.7061" width="84.7059" height="84.7059" stroke="white" stroke-opacity="0.03" stroke-width="1.14467"/>
<rect x="254.117" y="84.7061" width="84.7059" height="84.7059" stroke="white" stroke-opacity="0.03" stroke-width="1.14467"/>
<rect x="338.824" y="84.7061" width="84.7059" height="84.7059" stroke="white" stroke-opacity="0.03" stroke-width="1.14467"/>
<rect x="423.529" y="84.7061" width="84.7059" height="84.7059" stroke="white" stroke-opacity="0.03" stroke-width="1.14467"/>
<rect x="508.234" y="84.7061" width="84.7059" height="84.7059" stroke="white" stroke-opacity="0.03" stroke-width="1.14467"/>
<rect x="592.941" y="84.7061" width="84.7059" height="84.7059" stroke="white" stroke-opacity="0.03" stroke-width="1.14467"/>
<rect x="677.647" y="84.7061" width="84.7059" height="84.7059" stroke="white" stroke-opacity="0.03" stroke-width="1.14467"/>
<rect x="762.353" y="84.7061" width="84.7059" height="84.7059" stroke="white" stroke-opacity="0.03" stroke-width="1.14467"/>
<rect x="847.059" y="84.7061" width="84.7059" height="84.7059" stroke="white" stroke-opacity="0.03" stroke-width="1.14467"/>
<rect x="931.765" y="84.7061" width="84.7059" height="84.7059" stroke="white" stroke-opacity="0.03" stroke-width="1.14467"/>
<rect x="1016.47" y="84.7061" width="84.7059" height="84.7059" stroke="white" stroke-opacity="0.03" stroke-width="1.14467"/>
<rect x="1101.18" y="84.7061" width="84.7059" height="84.7059" stroke="white" stroke-opacity="0.03" stroke-width="1.14467"/>
<rect x="1185.88" y="84.7061" width="84.7059" height="84.7059" stroke="white" stroke-opacity="0.03" stroke-width="1.14467"/>
<rect x="1270.59" y="84.7061" width="84.7059" height="84.7059" stroke="white" stroke-opacity="0.03" stroke-width="1.14467"/>
<rect x="1355.29" y="84.7061" width="84.7059" height="84.7059" stroke="white" stroke-opacity="0.03" stroke-width="1.14467"/>
<rect y="169.412" width="84.7059" height="84.7059" stroke="white" stroke-opacity="0.03" stroke-width="1.14467"/>
<rect x="84.7051" y="169.412" width="84.7059" height="84.7059" stroke="white" stroke-opacity="0.03" stroke-width="1.14467"/>
<rect x="169.412" y="169.412" width="84.7059" height="84.7059" stroke="white" stroke-opacity="0.03" stroke-width="1.14467"/>
<rect x="254.117" y="169.412" width="84.7059" height="84.7059" stroke="white" stroke-opacity="0.03" stroke-width="1.14467"/>
<rect x="338.824" y="169.412" width="84.7059" height="84.7059" stroke="white" stroke-opacity="0.03" stroke-width="1.14467"/>
<rect x="423.529" y="169.412" width="84.7059" height="84.7059" stroke="white" stroke-opacity="0.03" stroke-width="1.14467"/>
<rect x="508.234" y="169.412" width="84.7059" height="84.7059" stroke="white" stroke-opacity="0.03" stroke-width="1.14467"/>
<rect x="592.941" y="169.412" width="84.7059" height="84.7059" stroke="white" stroke-opacity="0.03" stroke-width="1.14467"/>
<rect x="677.647" y="169.412" width="84.7059" height="84.7059" stroke="white" stroke-opacity="0.03" stroke-width="1.14467"/>
<rect x="762.353" y="169.412" width="84.7059" height="84.7059" stroke="white" stroke-opacity="0.03" stroke-width="1.14467"/>
<rect x="847.059" y="169.412" width="84.7059" height="84.7059" stroke="white" stroke-opacity="0.03" stroke-width="1.14467"/>
<rect x="931.765" y="169.412" width="84.7059" height="84.7059" stroke="white" stroke-opacity="0.03" stroke-width="1.14467"/>
<rect x="1016.47" y="169.412" width="84.7059" height="84.7059" stroke="white" stroke-opacity="0.03" stroke-width="1.14467"/>
<rect x="1101.18" y="169.412" width="84.7059" height="84.7059" stroke="white" stroke-opacity="0.03" stroke-width="1.14467"/>
<rect x="1185.88" y="169.412" width="84.7059" height="84.7059" stroke="white" stroke-opacity="0.03" stroke-width="1.14467"/>
<rect x="1270.59" y="169.412" width="84.7059" height="84.7059" stroke="white" stroke-opacity="0.03" stroke-width="1.14467"/>
<rect x="1355.29" y="169.412" width="84.7059" height="84.7059" stroke="white" stroke-opacity="0.03" stroke-width="1.14467"/>
<rect y="254.118" width="84.7059" height="84.7059" stroke="white" stroke-opacity="0.03" stroke-width="1.14467"/>
<rect x="84.7051" y="254.118" width="84.7059" height="84.7059" stroke="white" stroke-opacity="0.03" stroke-width="1.14467"/>
<rect x="169.412" y="254.118" width="84.7059" height="84.7059" stroke="white" stroke-opacity="0.03" stroke-width="1.14467"/>
<rect x="254.117" y="254.118" width="84.7059" height="84.7059" stroke="white" stroke-opacity="0.03" stroke-width="1.14467"/>
<rect x="338.824" y="254.118" width="84.7059" height="84.7059" stroke="white" stroke-opacity="0.03" stroke-width="1.14467"/>
<rect x="423.529" y="254.118" width="84.7059" height="84.7059" stroke="white" stroke-opacity="0.03" stroke-width="1.14467"/>
<rect x="508.234" y="254.118" width="84.7059" height="84.7059" stroke="white" stroke-opacity="0.03" stroke-width="1.14467"/>
<rect x="592.941" y="254.118" width="84.7059" height="84.7059" stroke="white" stroke-opacity="0.03" stroke-width="1.14467"/>
<rect x="677.647" y="254.118" width="84.7059" height="84.7059" stroke="white" stroke-opacity="0.03" stroke-width="1.14467"/>
<rect x="762.353" y="254.118" width="84.7059" height="84.7059" stroke="white" stroke-opacity="0.03" stroke-width="1.14467"/>
<rect x="847.059" y="254.118" width="84.7059" height="84.7059" stroke="white" stroke-opacity="0.03" stroke-width="1.14467"/>
<rect x="931.765" y="254.118" width="84.7059" height="84.7059" stroke="white" stroke-opacity="0.03" stroke-width="1.14467"/>
<rect x="1016.47" y="254.118" width="84.7059" height="84.7059" stroke="white" stroke-opacity="0.03" stroke-width="1.14467"/>
<rect x="1101.18" y="254.118" width="84.7059" height="84.7059" stroke="white" stroke-opacity="0.03" stroke-width="1.14467"/>
<rect x="1185.88" y="254.118" width="84.7059" height="84.7059" stroke="white" stroke-opacity="0.03" stroke-width="1.14467"/>
<rect x="1270.59" y="254.118" width="84.7059" height="84.7059" stroke="white" stroke-opacity="0.03" stroke-width="1.14467"/>
<rect x="1355.29" y="254.118" width="84.7059" height="84.7059" stroke="white" stroke-opacity="0.03" stroke-width="1.14467"/>
<rect y="338.824" width="84.7059" height="84.7059" stroke="white" stroke-opacity="0.03" stroke-width="1.14467"/>
<rect x="84.7051" y="338.824" width="84.7059" height="84.7059" stroke="white" stroke-opacity="0.03" stroke-width="1.14467"/>
<rect x="169.412" y="338.824" width="84.7059" height="84.7059" stroke="white" stroke-opacity="0.03" stroke-width="1.14467"/>
<rect x="254.117" y="338.824" width="84.7059" height="84.7059" stroke="white" stroke-opacity="0.03" stroke-width="1.14467"/>
<rect x="338.824" y="338.824" width="84.7059" height="84.7059" stroke="white" stroke-opacity="0.03" stroke-width="1.14467"/>
<rect x="423.529" y="338.824" width="84.7059" height="84.7059" stroke="white" stroke-opacity="0.03" stroke-width="1.14467"/>
<rect x="508.234" y="338.824" width="84.7059" height="84.7059" stroke="white" stroke-opacity="0.03" stroke-width="1.14467"/>
<rect x="592.941" y="338.824" width="84.7059" height="84.7059" stroke="white" stroke-opacity="0.03" stroke-width="1.14467"/>
<rect x="677.647" y="338.824" width="84.7059" height="84.7059" stroke="white" stroke-opacity="0.03" stroke-width="1.14467"/>
<rect x="762.353" y="338.824" width="84.7059" height="84.7059" stroke="white" stroke-opacity="0.03" stroke-width="1.14467"/>
<rect x="847.059" y="338.824" width="84.7059" height="84.7059" stroke="white" stroke-opacity="0.03" stroke-width="1.14467"/>
<rect x="931.765" y="338.824" width="84.7059" height="84.7059" stroke="white" stroke-opacity="0.03" stroke-width="1.14467"/>
<rect x="1016.47" y="338.824" width="84.7059" height="84.7059" stroke="white" stroke-opacity="0.03" stroke-width="1.14467"/>
<rect x="1101.18" y="338.824" width="84.7059" height="84.7059" stroke="white" stroke-opacity="0.03" stroke-width="1.14467"/>
<rect x="1185.88" y="338.824" width="84.7059" height="84.7059" stroke="white" stroke-opacity="0.03" stroke-width="1.14467"/>
<rect x="1270.59" y="338.824" width="84.7059" height="84.7059" stroke="white" stroke-opacity="0.03" stroke-width="1.14467"/>
<rect x="1355.29" y="338.824" width="84.7059" height="84.7059" stroke="white" stroke-opacity="0.03" stroke-width="1.14467"/>
<rect y="423.529" width="84.7059" height="84.7059" stroke="white" stroke-opacity="0.03" stroke-width="1.14467"/>
<rect x="84.7051" y="423.529" width="84.7059" height="84.7059" stroke="white" stroke-opacity="0.03" stroke-width="1.14467"/>
<rect x="169.412" y="423.529" width="84.7059" height="84.7059" stroke="white" stroke-opacity="0.03" stroke-width="1.14467"/>
<rect x="254.117" y="423.529" width="84.7059" height="84.7059" stroke="white" stroke-opacity="0.03" stroke-width="1.14467"/>
<rect x="338.824" y="423.529" width="84.7059" height="84.7059" stroke="white" stroke-opacity="0.03" stroke-width="1.14467"/>
<rect x="423.529" y="423.529" width="84.7059" height="84.7059" stroke="white" stroke-opacity="0.03" stroke-width="1.14467"/>
<rect x="508.234" y="423.529" width="84.7059" height="84.7059" stroke="white" stroke-opacity="0.03" stroke-width="1.14467"/>
<rect x="592.941" y="423.529" width="84.7059" height="84.7059" stroke="white" stroke-opacity="0.03" stroke-width="1.14467"/>
<rect x="677.647" y="423.529" width="84.7059" height="84.7059" stroke="white" stroke-opacity="0.03" stroke-width="1.14467"/>
<rect x="762.353" y="423.529" width="84.7059" height="84.7059" stroke="white" stroke-opacity="0.03" stroke-width="1.14467"/>
<rect x="847.059" y="423.529" width="84.7059" height="84.7059" stroke="white" stroke-opacity="0.03" stroke-width="1.14467"/>
<rect x="931.765" y="423.529" width="84.7059" height="84.7059" stroke="white" stroke-opacity="0.03" stroke-width="1.14467"/>
<rect x="1016.47" y="423.529" width="84.7059" height="84.7059" stroke="white" stroke-opacity="0.03" stroke-width="1.14467"/>
<rect x="1101.18" y="423.529" width="84.7059" height="84.7059" stroke="white" stroke-opacity="0.03" stroke-width="1.14467"/>
<rect x="1185.88" y="423.529" width="84.7059" height="84.7059" stroke="white" stroke-opacity="0.03" stroke-width="1.14467"/>
<rect x="1270.59" y="423.529" width="84.7059" height="84.7059" stroke="white" stroke-opacity="0.03" stroke-width="1.14467"/>
<rect x="1355.29" y="423.529" width="84.7059" height="84.7059" stroke="white" stroke-opacity="0.03" stroke-width="1.14467"/>
<path d="M169 387.529V607.029" stroke="url(#paint14_linear_541_381)"/>
<rect y="508.235" width="84.7059" height="84.7059" stroke="white" stroke-opacity="0.03" stroke-width="1.14467"/>
<rect x="84.7051" y="508.235" width="84.7059" height="84.7059" stroke="white" stroke-opacity="0.03" stroke-width="1.14467"/>
<rect x="169.412" y="508.235" width="84.7059" height="84.7059" stroke="white" stroke-opacity="0.03" stroke-width="1.14467"/>
<rect x="254.117" y="508.235" width="84.7059" height="84.7059" stroke="white" stroke-opacity="0.03" stroke-width="1.14467"/>
<rect x="338.824" y="508.235" width="84.7059" height="84.7059" stroke="white" stroke-opacity="0.03" stroke-width="1.14467"/>
<rect x="423.529" y="508.235" width="84.7059" height="84.7059" stroke="white" stroke-opacity="0.03" stroke-width="1.14467"/>
<rect x="508.234" y="508.235" width="84.7059" height="84.7059" stroke="white" stroke-opacity="0.03" stroke-width="1.14467"/>
<rect x="592.941" y="508.235" width="84.7059" height="84.7059" stroke="white" stroke-opacity="0.03" stroke-width="1.14467"/>
<rect x="677.647" y="508.235" width="84.7059" height="84.7059" stroke="white" stroke-opacity="0.03" stroke-width="1.14467"/>
<rect x="762.353" y="508.235" width="84.7059" height="84.7059" stroke="white" stroke-opacity="0.03" stroke-width="1.14467"/>
<rect x="847.059" y="508.235" width="84.7059" height="84.7059" stroke="white" stroke-opacity="0.03" stroke-width="1.14467"/>
<rect x="931.765" y="508.235" width="84.7059" height="84.7059" stroke="white" stroke-opacity="0.03" stroke-width="1.14467"/>
<rect x="1016.47" y="508.235" width="84.7059" height="84.7059" stroke="white" stroke-opacity="0.03" stroke-width="1.14467"/>
<rect x="1101.18" y="508.235" width="84.7059" height="84.7059" stroke="white" stroke-opacity="0.03" stroke-width="1.14467"/>
<rect x="1185.88" y="508.235" width="84.7059" height="84.7059" stroke="white" stroke-opacity="0.03" stroke-width="1.14467"/>
<rect x="1270.59" y="508.235" width="84.7059" height="84.7059" stroke="white" stroke-opacity="0.03" stroke-width="1.14467"/>
<rect x="1355.29" y="508.235" width="84.7059" height="84.7059" stroke="white" stroke-opacity="0.03" stroke-width="1.14467"/>
<rect y="592.941" width="84.7059" height="84.7059" stroke="white" stroke-opacity="0.03" stroke-width="1.14467"/>
<rect x="84.7051" y="592.941" width="84.7059" height="84.7059" stroke="white" stroke-opacity="0.03" stroke-width="1.14467"/>
<rect x="169.412" y="592.941" width="84.7059" height="84.7059" stroke="white" stroke-opacity="0.03" stroke-width="1.14467"/>
<rect x="254.117" y="592.941" width="84.7059" height="84.7059" stroke="white" stroke-opacity="0.03" stroke-width="1.14467"/>
<rect x="338.824" y="592.941" width="84.7059" height="84.7059" stroke="white" stroke-opacity="0.03" stroke-width="1.14467"/>
<rect x="423.529" y="592.941" width="84.7059" height="84.7059" stroke="white" stroke-opacity="0.03" stroke-width="1.14467"/>
<rect x="508.234" y="592.941" width="84.7059" height="84.7059" stroke="white" stroke-opacity="0.03" stroke-width="1.14467"/>
<rect x="592.941" y="592.941" width="84.7059" height="84.7059" stroke="white" stroke-opacity="0.03" stroke-width="1.14467"/>
<rect x="677.647" y="592.941" width="84.7059" height="84.7059" stroke="white" stroke-opacity="0.03" stroke-width="1.14467"/>
<rect x="762.353" y="592.941" width="84.7059" height="84.7059" stroke="white" stroke-opacity="0.03" stroke-width="1.14467"/>
<rect x="847.059" y="592.941" width="84.7059" height="84.7059" stroke="white" stroke-opacity="0.03" stroke-width="1.14467"/>
<rect x="931.765" y="592.941" width="84.7059" height="84.7059" stroke="white" stroke-opacity="0.03" stroke-width="1.14467"/>
<rect x="1016.47" y="592.941" width="84.7059" height="84.7059" stroke="white" stroke-opacity="0.03" stroke-width="1.14467"/>
<rect x="1101.18" y="592.941" width="84.7059" height="84.7059" stroke="white" stroke-opacity="0.03" stroke-width="1.14467"/>
<rect x="1185.88" y="592.941" width="84.7059" height="84.7059" stroke="white" stroke-opacity="0.03" stroke-width="1.14467"/>
<rect x="1270.59" y="592.941" width="84.7059" height="84.7059" stroke="white" stroke-opacity="0.03" stroke-width="1.14467"/>
<rect x="1355.29" y="592.941" width="84.7059" height="84.7059" stroke="white" stroke-opacity="0.03" stroke-width="1.14467"/>
<rect y="677.647" width="84.7059" height="84.7059" stroke="white" stroke-opacity="0.03" stroke-width="1.14467"/>
<rect x="84.7051" y="677.647" width="84.7059" height="84.7059" stroke="white" stroke-opacity="0.03" stroke-width="1.14467"/>
<rect x="169.412" y="677.647" width="84.7059" height="84.7059" stroke="white" stroke-opacity="0.03" stroke-width="1.14467"/>
<rect x="254.117" y="677.647" width="84.7059" height="84.7059" stroke="white" stroke-opacity="0.03" stroke-width="1.14467"/>
<rect x="338.824" y="677.647" width="84.7059" height="84.7059" stroke="white" stroke-opacity="0.03" stroke-width="1.14467"/>
<rect x="423.529" y="677.647" width="84.7059" height="84.7059" stroke="white" stroke-opacity="0.03" stroke-width="1.14467"/>
<rect x="508.234" y="677.647" width="84.7059" height="84.7059" stroke="white" stroke-opacity="0.03" stroke-width="1.14467"/>
<rect x="592.941" y="677.647" width="84.7059" height="84.7059" stroke="white" stroke-opacity="0.03" stroke-width="1.14467"/>
<rect x="677.647" y="677.647" width="84.7059" height="84.7059" stroke="white" stroke-opacity="0.03" stroke-width="1.14467"/>
<rect x="762.353" y="677.647" width="84.7059" height="84.7059" stroke="white" stroke-opacity="0.03" stroke-width="1.14467"/>
<rect x="847.059" y="677.647" width="84.7059" height="84.7059" stroke="white" stroke-opacity="0.03" stroke-width="1.14467"/>
<rect x="931.765" y="677.647" width="84.7059" height="84.7059" stroke="white" stroke-opacity="0.03" stroke-width="1.14467"/>
<rect x="1016.47" y="677.647" width="84.7059" height="84.7059" stroke="white" stroke-opacity="0.03" stroke-width="1.14467"/>
<rect x="1101.18" y="677.647" width="84.7059" height="84.7059" stroke="white" stroke-opacity="0.03" stroke-width="1.14467"/>
<rect x="1185.88" y="677.647" width="84.7059" height="84.7059" stroke="white" stroke-opacity="0.03" stroke-width="1.14467"/>
<rect x="1270.59" y="677.647" width="84.7059" height="84.7059" stroke="white" stroke-opacity="0.03" stroke-width="1.14467"/>
<rect x="1355.29" y="677.647" width="84.7059" height="84.7059" stroke="white" stroke-opacity="0.03" stroke-width="1.14467"/>
<rect y="762.353" width="84.7059" height="84.7059" stroke="white" stroke-opacity="0.03" stroke-width="1.14467"/>
<rect x="84.7051" y="762.353" width="84.7059" height="84.7059" stroke="white" stroke-opacity="0.03" stroke-width="1.14467"/>
<rect x="169.412" y="762.353" width="84.7059" height="84.7059" stroke="white" stroke-opacity="0.03" stroke-width="1.14467"/>
<rect x="254.117" y="762.353" width="84.7059" height="84.7059" stroke="white" stroke-opacity="0.03" stroke-width="1.14467"/>
<rect x="338.824" y="762.353" width="84.7059" height="84.7059" stroke="white" stroke-opacity="0.03" stroke-width="1.14467"/>
<rect x="423.529" y="762.353" width="84.7059" height="84.7059" stroke="white" stroke-opacity="0.03" stroke-width="1.14467"/>
<rect x="508.234" y="762.353" width="84.7059" height="84.7059" stroke="white" stroke-opacity="0.03" stroke-width="1.14467"/>
<rect x="592.941" y="762.353" width="84.7059" height="84.7059" stroke="white" stroke-opacity="0.03" stroke-width="1.14467"/>
<rect x="677.647" y="762.353" width="84.7059" height="84.7059" stroke="white" stroke-opacity="0.03" stroke-width="1.14467"/>
<rect x="762.353" y="762.353" width="84.7059" height="84.7059" stroke="white" stroke-opacity="0.03" stroke-width="1.14467"/>
<rect x="847.059" y="762.353" width="84.7059" height="84.7059" stroke="white" stroke-opacity="0.03" stroke-width="1.14467"/>
<rect x="931.765" y="762.353" width="84.7059" height="84.7059" stroke="white" stroke-opacity="0.03" stroke-width="1.14467"/>
<rect x="1016.47" y="762.353" width="84.7059" height="84.7059" stroke="white" stroke-opacity="0.03" stroke-width="1.14467"/>
<rect x="1101.18" y="762.353" width="84.7059" height="84.7059" stroke="white" stroke-opacity="0.03" stroke-width="1.14467"/>
<rect x="1185.88" y="762.353" width="84.7059" height="84.7059" stroke="white" stroke-opacity="0.03" stroke-width="1.14467"/>
<rect x="1270.59" y="762.353" width="84.7059" height="84.7059" stroke="white" stroke-opacity="0.03" stroke-width="1.14467"/>
<rect x="1355.29" y="762.353" width="84.7059" height="84.7059" stroke="white" stroke-opacity="0.03" stroke-width="1.14467"/>
<rect y="847.059" width="84.7059" height="84.7059" stroke="white" stroke-opacity="0.03" stroke-width="1.14467"/>
<rect x="84.7051" y="847.059" width="84.7059" height="84.7059" stroke="white" stroke-opacity="0.03" stroke-width="1.14467"/>
<rect x="169.412" y="847.059" width="84.7059" height="84.7059" stroke="white" stroke-opacity="0.03" stroke-width="1.14467"/>
<rect x="254.117" y="847.059" width="84.7059" height="84.7059" stroke="white" stroke-opacity="0.03" stroke-width="1.14467"/>
<rect x="338.824" y="847.059" width="84.7059" height="84.7059" stroke="white" stroke-opacity="0.03" stroke-width="1.14467"/>
<rect x="423.529" y="847.059" width="84.7059" height="84.7059" stroke="white" stroke-opacity="0.03" stroke-width="1.14467"/>
<rect x="508.234" y="847.059" width="84.7059" height="84.7059" stroke="white" stroke-opacity="0.03" stroke-width="1.14467"/>
<rect x="592.941" y="847.059" width="84.7059" height="84.7059" stroke="white" stroke-opacity="0.03" stroke-width="1.14467"/>
<rect x="677.647" y="847.059" width="84.7059" height="84.7059" stroke="white" stroke-opacity="0.03" stroke-width="1.14467"/>
<rect x="762.353" y="847.059" width="84.7059" height="84.7059" stroke="white" stroke-opacity="0.03" stroke-width="1.14467"/>
<rect x="847.059" y="847.059" width="84.7059" height="84.7059" stroke="white" stroke-opacity="0.03" stroke-width="1.14467"/>
<rect x="931.765" y="847.059" width="84.7059" height="84.7059" stroke="white" stroke-opacity="0.03" stroke-width="1.14467"/>
<rect x="1016.47" y="847.059" width="84.7059" height="84.7059" stroke="white" stroke-opacity="0.03" stroke-width="1.14467"/>
<rect x="1101.18" y="847.059" width="84.7059" height="84.7059" stroke="white" stroke-opacity="0.03" stroke-width="1.14467"/>
<rect x="1185.88" y="847.059" width="84.7059" height="84.7059" stroke="white" stroke-opacity="0.03" stroke-width="1.14467"/>
<rect x="1270.59" y="847.059" width="84.7059" height="84.7059" stroke="white" stroke-opacity="0.03" stroke-width="1.14467"/>
<rect x="1355.29" y="847.059" width="84.7059" height="84.7059" stroke="white" stroke-opacity="0.03" stroke-width="1.14467"/>
<path d="M1355 293.529V513.029" stroke="url(#paint15_linear_541_381)"/>
<path d="M254 109.529V329.029" stroke="url(#paint16_linear_541_381)"/>
<path d="M1186 113.529V333.029" stroke="url(#paint17_linear_541_381)"/>
</g>
<defs>
<filter id="filter0_f_541_381" x="-668.707" y="-790.183" width="1877.75" height="1843.24" filterUnits="userSpaceOnUse" color-interpolation-filters="sRGB">
<feFlood flood-opacity="0" result="BackgroundImageFix"/>
<feBlend mode="normal" in="SourceGraphic" in2="BackgroundImageFix" result="shape"/>
<feGaussianBlur stdDeviation="310" result="effect1_foregroundBlur_541_381"/>
</filter>
<filter id="filter1_f_541_381" x="-219.299" y="-541.54" width="1615.68" height="1278.59" filterUnits="userSpaceOnUse" color-interpolation-filters="sRGB">
<feFlood flood-opacity="0" result="BackgroundImageFix"/>
<feBlend mode="normal" in="SourceGraphic" in2="BackgroundImageFix" result="shape"/>
<feGaussianBlur stdDeviation="42" result="effect1_foregroundBlur_541_381"/>
</filter>
<filter id="filter2_f_541_381" x="-557.613" y="-566.5" width="2507" height="1487.74" filterUnits="userSpaceOnUse" color-interpolation-filters="sRGB">
<feFlood flood-opacity="0" result="BackgroundImageFix"/>
<feBlend mode="normal" in="SourceGraphic" in2="BackgroundImageFix" result="shape"/>
<feGaussianBlur stdDeviation="210" result="effect1_foregroundBlur_541_381"/>
</filter>
<filter id="filter3_f_541_381" x="686.238" y="282.402" width="1389.21" height="1212.2" filterUnits="userSpaceOnUse" color-interpolation-filters="sRGB">
<feFlood flood-opacity="0" result="BackgroundImageFix"/>
<feBlend mode="normal" in="SourceGraphic" in2="BackgroundImageFix" result="shape"/>
<feGaussianBlur stdDeviation="50" result="effect1_foregroundBlur_541_381"/>
</filter>
<linearGradient id="paint0_linear_541_381" x1="54.6348" y1="-434.247" x2="483.323" y2="325.962" gradientUnits="userSpaceOnUse">
<stop stop-color="#005DFF"/>
<stop offset="1" stop-color="#80AEFF"/>
</linearGradient>
<linearGradient id="paint1_linear_541_381" x1="391.281" y1="-777" x2="391.281" y2="588.657" gradientUnits="userSpaceOnUse">
<stop stop-color="#0D0E16" stop-opacity="0"/>
<stop offset="0.54" stop-color="#0D0E16"/>
<stop offset="1" stop-color="#0D0E16" stop-opacity="0"/>
</linearGradient>
<linearGradient id="paint2_linear_541_381" x1="479.123" y1="-777" x2="479.123" y2="588.657" gradientUnits="userSpaceOnUse">
<stop stop-color="#0D0E16" stop-opacity="0"/>
<stop offset="0.54" stop-color="#0D0E16"/>
<stop offset="1" stop-color="#0D0E16" stop-opacity="0"/>
</linearGradient>
<linearGradient id="paint3_linear_541_381" x1="566.961" y1="-776.999" x2="566.961" y2="588.658" gradientUnits="userSpaceOnUse">
<stop stop-color="#0D0E16" stop-opacity="0"/>
<stop offset="0.54" stop-color="#0D0E16"/>
<stop offset="1" stop-color="#0D0E16" stop-opacity="0"/>
</linearGradient>
<linearGradient id="paint4_linear_541_381" x1="654.805" y1="-776.999" x2="654.805" y2="588.658" gradientUnits="userSpaceOnUse">
<stop stop-color="#0D0E16" stop-opacity="0"/>
<stop offset="0.54" stop-color="#0D0E16"/>
<stop offset="1" stop-color="#0D0E16" stop-opacity="0"/>
</linearGradient>
<linearGradient id="paint5_linear_541_381" x1="742.648" y1="-777" x2="742.648" y2="588.657" gradientUnits="userSpaceOnUse">
<stop stop-color="#0D0E16" stop-opacity="0"/>
<stop offset="0.54" stop-color="#0D0E16"/>
<stop offset="1" stop-color="#0D0E16" stop-opacity="0"/>
</linearGradient>
<linearGradient id="paint6_linear_541_381" x1="830.486" y1="-777" x2="830.486" y2="588.657" gradientUnits="userSpaceOnUse">
<stop stop-color="#0D0E16" stop-opacity="0"/>
<stop offset="0.54" stop-color="#0D0E16"/>
<stop offset="1" stop-color="#0D0E16" stop-opacity="0"/>
</linearGradient>
<linearGradient id="paint7_linear_541_381" x1="918.33" y1="-776.999" x2="918.33" y2="588.658" gradientUnits="userSpaceOnUse">
<stop stop-color="#0D0E16" stop-opacity="0"/>
<stop offset="0.54" stop-color="#0D0E16"/>
<stop offset="1" stop-color="#0D0E16" stop-opacity="0"/>
</linearGradient>
<linearGradient id="paint8_linear_541_381" x1="1006.17" y1="-777" x2="1006.17" y2="588.657" gradientUnits="userSpaceOnUse">
<stop stop-color="#0D0E16" stop-opacity="0"/>
<stop offset="0.54" stop-color="#0D0E16"/>
<stop offset="1" stop-color="#0D0E16" stop-opacity="0"/>
</linearGradient>
<linearGradient id="paint9_linear_541_381" x1="1094.01" y1="-777" x2="1094.01" y2="588.657" gradientUnits="userSpaceOnUse">
<stop stop-color="#0D0E16" stop-opacity="0"/>
<stop offset="0.54" stop-color="#0D0E16"/>
<stop offset="1" stop-color="#0D0E16" stop-opacity="0"/>
</linearGradient>
<linearGradient id="paint10_linear_541_381" x1="2.00195" y1="41.8945" x2="1440" y2="41.8945" gradientUnits="userSpaceOnUse">
<stop stop-color="#0D0E16" stop-opacity="0"/>
<stop offset="0.54" stop-color="#0D0E16"/>
<stop offset="1" stop-color="#0D0E16" stop-opacity="0"/>
</linearGradient>
<linearGradient id="paint11_linear_541_381" x1="2.00195" y1="142.611" x2="1440" y2="142.611" gradientUnits="userSpaceOnUse">
<stop stop-color="#0D0E16" stop-opacity="0"/>
<stop offset="0.54" stop-color="#0D0E16"/>
<stop offset="1" stop-color="#0D0E16" stop-opacity="0"/>
</linearGradient>
<linearGradient id="paint12_linear_541_381" x1="2" y1="243.33" x2="1440" y2="243.33" gradientUnits="userSpaceOnUse">
<stop stop-color="#0D0E16" stop-opacity="0"/>
<stop offset="0.54" stop-color="#0D0E16"/>
<stop offset="1" stop-color="#0D0E16" stop-opacity="0"/>
</linearGradient>
<linearGradient id="paint13_linear_541_381" x1="925.332" y1="1263.27" x2="1833.82" y2="1199.88" gradientUnits="userSpaceOnUse">
<stop stop-color="#0066FF"/>
<stop offset="1" stop-color="#132D78"/>
</linearGradient>
<linearGradient id="paint14_linear_541_381" x1="169.5" y1="387.529" x2="169.5" y2="607.029" gradientUnits="userSpaceOnUse">
<stop stop-color="white" stop-opacity="0"/>
<stop offset="0.51" stop-color="#A6DBFF" stop-opacity="0.6"/>
<stop offset="1" stop-color="white" stop-opacity="0"/>
</linearGradient>
<linearGradient id="paint15_linear_541_381" x1="1355.5" y1="293.529" x2="1355.5" y2="513.029" gradientUnits="userSpaceOnUse">
<stop stop-color="white" stop-opacity="0"/>
<stop offset="0.51" stop-color="#A6DBFF" stop-opacity="0.6"/>
<stop offset="1" stop-color="white" stop-opacity="0"/>
</linearGradient>
<linearGradient id="paint16_linear_541_381" x1="254.5" y1="109.529" x2="254.5" y2="329.029" gradientUnits="userSpaceOnUse">
<stop stop-color="white" stop-opacity="0"/>
<stop offset="0.51" stop-color="#A6DBFF" stop-opacity="0.6"/>
<stop offset="1" stop-color="white" stop-opacity="0"/>
</linearGradient>
<linearGradient id="paint17_linear_541_381" x1="1186.5" y1="113.529" x2="1186.5" y2="333.029" gradientUnits="userSpaceOnUse">
<stop stop-color="white" stop-opacity="0"/>
<stop offset="0.51" stop-color="#A6DBFF" stop-opacity="0.6"/>
<stop offset="1" stop-color="white" stop-opacity="0"/>
</linearGradient>
<clipPath id="clip0_541_381">
<rect width="1440" height="909" fill="white"/>
</clipPath>
<clipPath id="clip1_541_381">
<rect width="1440" height="909" fill="white"/>
</clipPath>
<clipPath id="clip2_541_381">
<rect width="1440" height="939" fill="white" transform="translate(0 -30)"/>
</clipPath>
<clipPath id="clip3_541_381">
<rect width="1438" height="991" fill="white" transform="translate(2 -590)"/>
</clipPath>
</defs>
</svg>
